<svg xmlns="http://www.w3.org/2000/svg" width="54.938" height="42.281" viewBox="0 0 54.938 42.281">
  <metadata><?xpacket begin="﻿" id="W5M0MpCehiHzreSzNTczkc9d"?>
<x:xmpmeta xmlns:x="adobe:ns:meta/" x:xmptk="Adobe XMP Core 5.6-c142 79.160924, 2017/07/13-01:06:39        ">
   <rdf:RDF xmlns:rdf="http://www.w3.org/1999/02/22-rdf-syntax-ns#">
      <rdf:Description rdf:about=""/>
   </rdf:RDF>
</x:xmpmeta>
                                                                                                    
                                                                                                    
                                                                                                    
                                                                                                    
                                                                                                    
                                                                                                    
                                                                                                    
                                                                                                    
                                                                                                    
                                                                                                    
                                                                                                    
                                                                                                    
                                                                                                    
                                                                                                    
                                                                                                    
                                                                                                    
                                                                                                    
                                                                                                    
                                                                                                    
                                                                                                    
                           
<?xpacket end="w"?></metadata>
<defs>
    <style>
      .cls-1 {
        fill: #fff;
        fill-rule: evenodd;
      }
    </style>
  </defs>
  <path id="Фигура_1013" data-name="Фигура 1013" class="cls-1" d="M442.23,439.927c-0.169.016-.338,0.035-0.507,0.055-0.253.029-.506,0.06-0.721,0.071H429.111a2.175,2.175,0,0,0-2.172,2.172v0.36h-2.892a2.175,2.175,0,0,0-2.172,2.172v7.6a2.175,2.175,0,0,0,2.172,2.172h2.892v0.361a2.175,2.175,0,0,0,2.172,2.172l2.8,12.856a0.921,0.921,0,0,0,.04.133,3.464,3.464,0,0,0,3.215,2.211,3.364,3.364,0,0,0,2.417-1.013l3.044-3.019a3.664,3.664,0,0,0,.706-3.786l-1.8-7.383h1.444c0.256,0.012.509,0.043,0.763,0.072,0.164,0.02.329,0.039,0.493,0.054a0.906,0.906,0,0,0,.99-0.9V440.829a0.907,0.907,0,0,0-.3-0.669A0.884,0.884,0,0,0,442.23,439.927Zm-0.822,15.349c-0.126-.011-0.256-0.02-0.394-0.026h-2.638a0.906,0.906,0,0,0-.88,1.12l2.082,8.522a2.068,2.068,0,0,1-.229,2.054l-3.058,3.033a1.522,1.522,0,0,1-1.454.435,1.615,1.615,0,0,1-1.173-.954l-2.9-13.5a0.9,0.9,0,0,0-.885-0.715h-0.767a0.361,0.361,0,0,1-.361-0.361v-1.267a0.9,0.9,0,0,0-.906-0.905h-3.8a0.361,0.361,0,0,1-.361-0.361v-7.6a0.361,0.361,0,0,1,.361-0.361h3.8a0.9,0.9,0,0,0,.906-0.905v-1.266a0.361,0.361,0,0,1,.361-0.361h11.933c0.122-.006.243-0.015,0.364-0.026v13.439Zm34.29-8.317h-4.5a1.124,1.124,0,0,0,0,2.247h4.5A1.124,1.124,0,0,0,475.7,446.959Zm-7.836-6.272a1.124,1.124,0,0,0,1.542.385l3.69-2.216a1.124,1.124,0,0,0-1.156-1.927l-3.691,2.216a1.124,1.124,0,0,0-.385,1.542h0Zm5.243,17.528L469.414,456a1.124,1.124,0,1,0-1.156,1.928l3.691,2.215A1.124,1.124,0,0,0,473.105,458.215Zm-7.119-14.892-1.786-.4V432.093a2.127,2.127,0,0,0-.339-1.123,1.478,1.478,0,0,0-.143-0.208,2.148,2.148,0,0,0-.8-0.638,0.9,0.9,0,0,0-.211-0.093,0.975,0.975,0,0,0-.186-0.036,2.27,2.27,0,0,0-.932,0,1.421,1.421,0,0,0-.231.053,2.142,2.142,0,0,0-.876.536c-0.022.018-.042,0.036-0.062,0.054a0.765,0.765,0,0,0-.072.078c-4.1,4.977-8.562,7.794-14.05,8.864a0.9,0.9,0,0,0-.732.888v16.188a0.906,0.906,0,0,0,.732.889c5.49,1.07,9.955,3.885,14.062,8.874a0.907,0.907,0,0,0,.108.106,1.8,1.8,0,0,0,.424.329,1.56,1.56,0,0,0,.259.158,2.219,2.219,0,0,0,.874.184,2.263,2.263,0,0,0,.746-0.131A0.789,0.789,0,0,0,462.9,467a2.138,2.138,0,0,0,.826-0.659c0.048-.062.084-0.117,0.133-0.193a2.136,2.136,0,0,0,.344-1.132V454.194l1.82-.412a1.95,1.95,0,0,0,1.621-1.825v-6.8A1.977,1.977,0,0,0,465.986,443.323Zm-2.9-11.884-0.569.337v-0.018Zm-0.7,33.581a0.518,0.518,0,0,1-.1.22,0.363,0.363,0,0,1-.1.1c-0.028.009-.055,0.02-0.083,0.032a0.353,0.353,0,0,1-.169,0c-0.033-.022-0.066-0.044-0.087-0.056-0.043-.024-0.066-0.042-0.069-0.042l0,0a0.789,0.789,0,0,0-.086-0.088c-4.181-5.058-8.749-8.02-14.316-9.27V441.2c5.559-1.248,10.121-4.2,14.3-9.253a0.99,0.99,0,0,0,.08-0.078,0.462,0.462,0,0,1,.106-0.087l0.1-.018c0.026,0,.051-0.012.081-0.02l0.069,0.021a0.473,0.473,0,0,0,.074.019,0.539,0.539,0,0,1,.1.1l0.136-.076,0.04,0-0.165.1,0.01,0.017a0.416,0.416,0,0,1,.071.175V465.02Zm3.2-13-1.386.313v-7.561l1.359,0.307a0.526,0.526,0,0,0,.271.074l0.022,6.731A0.63,0.63,0,0,1,465.586,452.024Z" transform="translate(-421.875 -429.969)"/>
</svg>
