<svg xmlns="http://www.w3.org/2000/svg" width="49.563" height="38.719" viewBox="0 0 49.563 38.719">
  <metadata><?xpacket begin="﻿" id="W5M0MpCehiHzreSzNTczkc9d"?>
<x:xmpmeta xmlns:x="adobe:ns:meta/" x:xmptk="Adobe XMP Core 5.6-c142 79.160924, 2017/07/13-01:06:39        ">
   <rdf:RDF xmlns:rdf="http://www.w3.org/1999/02/22-rdf-syntax-ns#">
      <rdf:Description rdf:about=""/>
   </rdf:RDF>
</x:xmpmeta>
                                                                                                    
                                                                                                    
                                                                                                    
                                                                                                    
                                                                                                    
                                                                                                    
                                                                                                    
                                                                                                    
                                                                                                    
                                                                                                    
                                                                                                    
                                                                                                    
                                                                                                    
                                                                                                    
                                                                                                    
                                                                                                    
                                                                                                    
                                                                                                    
                                                                                                    
                                                                                                    
                           
<?xpacket end="w"?></metadata>
<defs>
    <style>
      .cls-1 {
        fill: #fff;
        fill-rule: evenodd;
      }
    </style>
  </defs>
  <path id="Фигура_1012" data-name="Фигура 1012" class="cls-1" d="M978.671,437.569a4.035,4.035,0,0,0-2.587-1.9V434.31a2.563,2.563,0,0,0-2.561-2.558h-5.665a2.564,2.564,0,0,0-2.562,2.558v1.359a4.012,4.012,0,0,0-1.8.927l-0.47.426a2.218,2.218,0,0,1-1.492.575h-3.747a2.22,2.22,0,0,1-1.492-.575l-0.47-.425a4,4,0,0,0-1.8-.928V434.31a2.563,2.563,0,0,0-2.561-2.558H945.8a2.563,2.563,0,0,0-2.561,2.558v1.355a4.038,4.038,0,0,0-2.587,1.9,46.7,46.7,0,0,0-5.762,22.9c0,7.264,3.133,9.234,5,9.762,4.086,1.158,9.553-2.284,13.3-8.365a2.248,2.248,0,0,1,1.9-1.06h9.146a2.247,2.247,0,0,1,1.9,1.06c3.261,5.3,7.828,8.587,11.651,8.587a6.007,6.007,0,0,0,1.647-.222c1.868-.528,5-2.5,5-9.762A46.687,46.687,0,0,0,978.671,437.569Zm-10.813-4.015h5.665a0.757,0.757,0,0,1,.757.756v1.245H967.1V434.31A0.758,0.758,0,0,1,967.858,433.554Zm-22.062,0h5.666a0.758,0.758,0,0,1,.757.756v1.245h-7.18V434.31A0.758,0.758,0,0,1,945.8,433.554ZM978.942,468.5c-3.262.922-8-2.264-11.27-7.575a4.064,4.064,0,0,0-3.439-1.918h-9.146a4.064,4.064,0,0,0-3.439,1.918c-3.271,5.31-8.007,8.5-11.27,7.575-2.378-.672-3.688-3.523-3.688-8.028a44.836,44.836,0,0,1,5.521-22,2.229,2.229,0,0,1,1.926-1.113h8.984a2.216,2.216,0,0,1,1.492.576l0.47,0.425a4.019,4.019,0,0,0,2.7,1.042h3.747a4.019,4.019,0,0,0,2.7-1.042l0.471-.426a2.215,2.215,0,0,1,1.491-.575h8.984a2.232,2.232,0,0,1,1.927,1.113,44.832,44.832,0,0,1,5.521,22C982.63,464.976,981.32,467.827,978.942,468.5Zm-26.551-22.275h-1.1a0.115,0.115,0,0,1-.115-0.115v-1.1a1.921,1.921,0,0,0-1.92-1.918h-1.278a1.92,1.92,0,0,0-1.919,1.918v1.1a0.116,0.116,0,0,1-.116.115h-1.1a1.921,1.921,0,0,0-1.919,1.918v1.277a1.921,1.921,0,0,0,1.919,1.918h1.1a0.115,0.115,0,0,1,.116.114v1.1a1.921,1.921,0,0,0,1.919,1.918h1.278a1.922,1.922,0,0,0,1.92-1.918v-1.1a0.114,0.114,0,0,1,.115-0.114h1.1a1.921,1.921,0,0,0,1.92-1.918v-1.276A1.919,1.919,0,0,0,952.391,446.224Zm0.115,3.195a0.116,0.116,0,0,1-.116.115h-1.1a1.921,1.921,0,0,0-1.92,1.917v1.1a0.114,0.114,0,0,1-.115.115h-1.278a0.115,0.115,0,0,1-.115-0.115v-1.1a1.921,1.921,0,0,0-1.92-1.917h-1.1a0.116,0.116,0,0,1-.115-0.115v-1.277a0.115,0.115,0,0,1,.115-0.115h1.1a1.921,1.921,0,0,0,1.92-1.918v-1.1a0.114,0.114,0,0,1,.115-0.115h1.278a0.115,0.115,0,0,1,.115.115v1.1a1.922,1.922,0,0,0,1.92,1.918h1.1a0.129,0.129,0,0,1,.115.115v1.277ZM970.27,447.8a2.573,2.573,0,1,0-2.576-2.573A2.578,2.578,0,0,0,970.27,447.8Zm0-3.344a0.771,0.771,0,1,1-.772.771A0.772,0.772,0,0,1,970.27,444.452Zm0,7.257a2.573,2.573,0,1,0,2.576,2.573A2.578,2.578,0,0,0,970.27,451.709Zm0,3.343a0.771,0.771,0,1,1,.772-0.77A0.772,0.772,0,0,1,970.27,455.052Zm4.534-7.873a2.573,2.573,0,1,0,2.575,2.573A2.578,2.578,0,0,0,974.8,447.179Zm0,3.344a0.771,0.771,0,1,1,.771-0.771A0.772,0.772,0,0,1,974.8,450.523Zm-9.068-3.344a2.573,2.573,0,1,0,2.576,2.573A2.576,2.576,0,0,0,965.736,447.179Zm0,3.344a0.771,0.771,0,1,1,.772-0.771A0.771,0.771,0,0,1,965.736,450.523Z" transform="translate(-934.875 -431.75)"/>
</svg>
