<svg xmlns="http://www.w3.org/2000/svg" width="33.35" height="40.563" viewBox="0 0 33.35 40.563">
  <metadata><?xpacket begin="﻿" id="W5M0MpCehiHzreSzNTczkc9d"?>
<x:xmpmeta xmlns:x="adobe:ns:meta/" x:xmptk="Adobe XMP Core 5.6-c142 79.160924, 2017/07/13-01:06:39        ">
   <rdf:RDF xmlns:rdf="http://www.w3.org/1999/02/22-rdf-syntax-ns#">
      <rdf:Description rdf:about=""/>
   </rdf:RDF>
</x:xmpmeta>
                                                                                                    
                                                                                                    
                                                                                                    
                                                                                                    
                                                                                                    
                                                                                                    
                                                                                                    
                                                                                                    
                                                                                                    
                                                                                                    
                                                                                                    
                                                                                                    
                                                                                                    
                                                                                                    
                                                                                                    
                                                                                                    
                                                                                                    
                                                                                                    
                                                                                                    
                                                                                                    
                           
<?xpacket end="w"?></metadata>
<defs>
    <style>
      .cls-1 {
        fill: #fff;
        fill-rule: evenodd;
      }
    </style>
  </defs>
  <path id="Фигура_1014" data-name="Фигура 1014" class="cls-1" d="M1483.88,437.569h-4.82a4.862,4.862,0,0,0-3.33-1.336h-1.1v-1.776a3.571,3.571,0,0,0-3.56-3.57h-1.33a3.571,3.571,0,0,0-3.56,3.57v1.776h-1.11a4.9,4.9,0,0,0-3.33,1.336h-4.09a3.571,3.571,0,0,0-3.56,3.569v26.728a3.57,3.57,0,0,0,3.56,3.569h26.23a3.57,3.57,0,0,0,3.56-3.569V441.138A3.571,3.571,0,0,0,1483.88,437.569Zm-18.8.458h1.99a0.9,0.9,0,0,0,.9-0.9v-2.673a1.772,1.772,0,0,1,1.77-1.775h1.33a1.772,1.772,0,0,1,1.77,1.775v2.673a0.9,0.9,0,0,0,.9.9h1.99a3.134,3.134,0,0,1,3.11,3.115v0.436h-16.87v-0.436A3.134,3.134,0,0,1,1465.08,438.027Zm20.57,29.839a1.778,1.778,0,0,1-1.77,1.775h-26.23a1.772,1.772,0,0,1-1.77-1.775V441.138a1.772,1.772,0,0,1,1.77-1.775h2.88a4.992,4.992,0,0,0-.35,1.775v1.337a0.9,0.9,0,0,0,.9.9h18.65a0.9,0.9,0,0,0,.89-0.9v-1.339a4.762,4.762,0,0,0-.34-1.773h3.6a1.779,1.779,0,0,1,1.77,1.775v26.728Zm-15.25-31.588a1.153,1.153,0,1,0-1.15-1.153A1.148,1.148,0,0,0,1470.4,436.278Zm9.12,16.146-5.21-.759-2.33-4.739a1.292,1.292,0,0,0-1.16-.721,1.267,1.267,0,0,0-1.15.721l-2.34,4.739-5.21.759a1.291,1.291,0,0,0-.71,2.2l3.77,3.689-0.89,5.209a1.288,1.288,0,0,0,1.87,1.362l4.66-2.46,4.66,2.46a1.283,1.283,0,0,0,1.36-.1,1.272,1.272,0,0,0,.51-1.264l-0.89-5.209,3.78-3.689a1.3,1.3,0,0,0,.32-1.324A1.278,1.278,0,0,0,1479.52,452.424Zm-4.64,4.937a0.9,0.9,0,0,0-.26.794l0.8,4.671-4.09-2.158a1.111,1.111,0,0,0-1.02,0h0l-4.09,2.157,0.8-4.671a0.9,0.9,0,0,0-.26-0.794l-3.38-3.308,4.68-.681a0.891,0.891,0,0,0,.67-0.49l2.09-4.25,2.09,4.25a0.891,0.891,0,0,0,.67.49l4.68,0.681Z" transform="translate(-1454.09 -430.875)"/>
</svg>
