<svg xmlns="http://www.w3.org/2000/svg" width="429.75" height="351.72" viewBox="0 0 429.75 351.72">
  <metadata><?xpacket begin="﻿" id="W5M0MpCehiHzreSzNTczkc9d"?>
<x:xmpmeta xmlns:x="adobe:ns:meta/" x:xmptk="Adobe XMP Core 5.6-c138 79.159824, 2016/09/14-01:09:01        ">
   <rdf:RDF xmlns:rdf="http://www.w3.org/1999/02/22-rdf-syntax-ns#">
      <rdf:Description rdf:about=""/>
   </rdf:RDF>
</x:xmpmeta>
                                                                                                    
                                                                                                    
                                                                                                    
                                                                                                    
                                                                                                    
                                                                                                    
                                                                                                    
                                                                                                    
                                                                                                    
                                                                                                    
                                                                                                    
                                                                                                    
                                                                                                    
                                                                                                    
                                                                                                    
                                                                                                    
                                                                                                    
                                                                                                    
                                                                                                    
                                                                                                    
                           
<?xpacket end="w"?></metadata>
<defs>
    <style>
      .cls-1 {
        fill: #f1f1ff;
        fill-rule: evenodd;
      }
    </style>
  </defs>
  <path id="Фигура_1007" data-name="Фигура 1007" class="cls-1" d="M1671.81,1230.14l-312.27,113.05a7.545,7.545,0,0,0-1.71,13.32l46.67,31.92,211.87-111.92-179.33,134.16v54.35a4.677,4.677,0,0,0,4.69,4.66,4.572,4.572,0,0,0,2.54-.77l39.5-26.26,38.91,26.59a7.589,7.589,0,0,0,10.56-2.04l0.18-.27,141.22-233.3a2.385,2.385,0,0,0-.78-3.28A2.352,2.352,0,0,0,1671.81,1230.14Zm-257.38,219.97-146.36,109.18a3.355,3.355,0,0,1-4.7-.69l-0.16-.22a3.388,3.388,0,0,1,.69-4.72l146.36-109.18a3.355,3.355,0,0,1,4.7.69l0.16,0.22A3.379,3.379,0,0,1,1414.43,1450.11Zm84.94,41.65-119.45,89.28a3.355,3.355,0,0,1-4.7-.69h0a3.387,3.387,0,0,1,.69-4.72l119.45-89.29a3.379,3.379,0,0,1,4.71.7h0A3.39,3.39,0,0,1,1499.37,1491.76Zm-149.04-98.82-99.69,74.37a3.377,3.377,0,0,1-4.71-.7h0a3.4,3.4,0,0,1,.69-4.72l99.7-74.37a3.364,3.364,0,0,1,4.7.69h0A3.4,3.4,0,0,1,1350.33,1392.94Z" transform="translate(-1245.25 -1230)"/>
</svg>
