<svg xmlns="http://www.w3.org/2000/svg" width="424.157" height="355.19" viewBox="0 0 424.157 355.19">
  <metadata><?xpacket begin="﻿" id="W5M0MpCehiHzreSzNTczkc9d"?>
<x:xmpmeta xmlns:x="adobe:ns:meta/" x:xmptk="Adobe XMP Core 5.6-c138 79.159824, 2016/09/14-01:09:01        ">
   <rdf:RDF xmlns:rdf="http://www.w3.org/1999/02/22-rdf-syntax-ns#">
      <rdf:Description rdf:about=""/>
   </rdf:RDF>
</x:xmpmeta>
                                                                                                    
                                                                                                    
                                                                                                    
                                                                                                    
                                                                                                    
                                                                                                    
                                                                                                    
                                                                                                    
                                                                                                    
                                                                                                    
                                                                                                    
                                                                                                    
                                                                                                    
                                                                                                    
                                                                                                    
                                                                                                    
                                                                                                    
                                                                                                    
                                                                                                    
                                                                                                    
                           
<?xpacket end="w"?></metadata>
<defs>
    <style>
      .cls-1 {
        fill: #f1f1ff;
        fill-rule: evenodd;
      }
    </style>
  </defs>
  <path id="Фигура_1007" data-name="Фигура 1007" class="cls-1" d="M237.452,2003.24l190.024-272.36a7.537,7.537,0,0,1,13.3,1.79l18.755,53.35L296.589,1961.7,472.6,1823.2l52.489,14.06a4.685,4.685,0,0,1,3.291,5.74,4.621,4.621,0,0,1-1.4,2.26l-35.585,31.35L507,1921.09a7.59,7.59,0,0,1-4.712,9.67c-0.1.03-.2,0.07-0.3,0.1L240.1,2006.89A2.387,2.387,0,0,1,237.452,2003.24Zm279.086-191.67L659.88,1698.46a3.373,3.373,0,0,0,.547-4.73l-0.168-.21a3.39,3.39,0,0,0-4.739-.55L512.178,1806.08a3.371,3.371,0,0,0-.547,4.73l0.168,0.21A3.389,3.389,0,0,0,516.538,1811.57Zm18.248,92.83,117.156-92.28a3.359,3.359,0,0,0,.547-4.72h0a3.389,3.389,0,0,0-4.739-.55l-117.156,92.27a3.371,3.371,0,0,0-.547,4.73h0A3.389,3.389,0,0,0,534.786,1904.4Zm-56.881-169.55,97.639-77.04a3.372,3.372,0,0,0,.547-4.73h0a3.389,3.389,0,0,0-4.739-.55l-97.639,77.05a3.359,3.359,0,0,0-.547,4.72h0A3.389,3.389,0,0,0,477.905,1734.85Z" transform="translate(-237.031 -1651.78)"/>
</svg>
