<?xml version="1.0" encoding="utf-8"?>
<!-- Generator: Adobe Illustrator 22.0.1, SVG Export Plug-In . SVG Version: 6.00 Build 0)  -->
<svg version="1.1" id="Слой_1" xmlns="http://www.w3.org/2000/svg" xmlns:xlink="http://www.w3.org/1999/xlink" x="0px" y="0px"
	 width="18.4px" height="17.7px" viewBox="0 0 18.4 17.7" style="enable-background:new 0 0 18.4 17.7;" xml:space="preserve">
<style type="text/css">
	.st0{fill:#FFFFFF;stroke:#533377;stroke-linecap:round;stroke-linejoin:round;stroke-miterlimit:10;}
</style>
<g id="Слой_12">
	<path class="st0" d="M9,14.9l-4.4,2.3c-0.5,0.2-1-0.2-0.9-0.7l0.8-4.9c0-0.2,0-0.4-0.2-0.6L0.7,7.5c-0.4-0.4-0.2-1,0.4-1.1L6,5.7
		c0.2,0,0.4-0.2,0.5-0.3l2.2-4.5c0.2-0.5,0.9-0.5,1.1,0L12,5.4c0.1,0.2,0.3,0.3,0.5,0.3l4.9,0.7c0.5,0.1,0.7,0.7,0.4,1.1L14.2,11
		c-0.1,0.1-0.2,0.4-0.2,0.6l0.8,4.9c0.1,0.5-0.5,0.9-0.9,0.7l-4.4-2.3C9.4,14.8,9.2,14.8,9,14.9z"/>
</g>
</svg>
