<?xml version="1.0" encoding="utf-8"?>
<!-- Generator: Adobe Illustrator 22.0.1, SVG Export Plug-In . SVG Version: 6.00 Build 0)  -->
<svg version="1.1" xmlns="http://www.w3.org/2000/svg" xmlns:xlink="http://www.w3.org/1999/xlink" x="0px" y="0px" width="358.2px"
	 height="289.8px" viewBox="0 0 358.2 289.8" style="enable-background:new 0 0 358.2 289.8;" xml:space="preserve">
<style type="text/css">
	.st0{fill:#8063C6;stroke:#533377;stroke-width:2;stroke-linecap:round;stroke-linejoin:round;stroke-miterlimit:10;}
	.st1{fill:#FFD23E;stroke:#533377;stroke-width:2;stroke-linecap:round;stroke-linejoin:round;stroke-miterlimit:10;}
	.st2{fill:#FFFFFF;stroke:#533377;stroke-width:2;stroke-linecap:round;stroke-linejoin:round;stroke-miterlimit:10;}
	.st3{fill:#FFD23E;}
	.st4{fill:#533377;}
</style>
<g id="Слой_7">
	<path class="st0" d="M189.1,103h-12.4c-15.7,0-28.4,12.7-28.4,28.4V165c0,4.9,4,8.9,8.9,8.9h4.5h3.5v62.9l0,0h8.8
		c4.9,0,8.8-4,8.8-8.8v-54.1h0.1v62.9l0,0h8.8c4.9,0,8.8-4,8.8-8.8v-54.1h2.8h5.1c4.9,0,8.9-4,8.9-8.9v-33.7
		C217.5,115.7,204.8,103,189.1,103z"/>
	<path class="st1" d="M165.2,155.1v18.8v62.9l0,0h8.8c4.9,0,8.8-4,8.8-8.8v-54.1h0.1v62.9l0,0h8.8c4.9,0,8.8-4,8.8-8.8v-54.1v-18.8
		H165.2z"/>
	<path class="st2" d="M182.9,103L182.9,103c-7.8,0-14.2-6.3-14.2-14.2v-3.5c0-7.8,6.3-14.2,14.2-14.2l0,0c7.8,0,14.2,6.3,14.2,14.2
		v3.5C197.1,96.7,190.8,103,182.9,103z"/>
	<path class="st1" d="M258.2,78.8h-12.4c-15.7,0-28.4,12.7-28.4,28.4v33.7c0,4.9,4,8.9,8.9,8.9h4.5h3.5v62.9l0,0h8.8
		c4.9,0,8.8-4,8.8-8.8v-54.1h0.1v62.9l0,0h8.8c4.9,0,8.8-4,8.8-8.8v-92.9c0,0,0-2.2,2.8,0c5.5,4.3,19.7,17.5,19.7,17.5
		c2,1.9,7,2.6,10.7-0.8c2.8-2.5,3.3-7.8,1-10.9C300.6,112.2,273.9,78.8,258.2,78.8z"/>
	<path class="st0" d="M234.3,130.9v18.8v62.9l0,0h8.8c4.9,0,8.8-4,8.8-8.8v-54.1h0.1v62.9l0,0h8.8c4.9,0,8.8-4,8.8-8.8v-54.1v-18.8
		H234.3z"/>
	<path class="st2" d="M252,78.8L252,78.8c-7.8,0-14.2-6.3-14.2-14.2v-3.5c0-7.8,6.3-14.2,14.2-14.2l0,0c7.8,0,14.2,6.3,14.2,14.2
		v3.5C266.2,72.5,259.9,78.8,252,78.8z"/>
</g>
<g id="Слой_5">
	<path class="st1" d="M107.4,78.8h12.4c15.7,0,28.4,12.7,28.4,28.4v33.7c0,4.9-4,8.9-8.9,8.9h-4.5h-3.5v62.9l0,0h-8.8
		c-4.9,0-8.8-4-8.8-8.8v-54.1h-0.1v62.9l0,0h-8.8c-4.9,0-8.8-4-8.8-8.8v-92.9c0,0,0-2.2-2.8,0c-5.5,4.3-19.7,17.5-19.7,17.5
		c-2,1.9-7,2.6-10.7-0.8c-2.8-2.5-3.3-7.8-1-10.9C65,112.2,91.7,78.8,107.4,78.8z"/>
	<path class="st0" d="M131.3,130.9v18.8v62.9l0,0h-8.8c-4.9,0-8.8-4-8.8-8.8v-54.1h-0.1v62.9l0,0h-8.8c-4.9,0-8.8-4-8.8-8.8v-54.1
		v-18.8H131.3z"/>
	<path class="st2" d="M113.6,78.8L113.6,78.8c7.8,0,14.2-6.3,14.2-14.2v-3.5c0-7.8-6.3-14.2-14.2-14.2l0,0
		c-7.8,0-14.2,6.3-14.2,14.2v3.5C99.4,72.5,105.7,78.8,113.6,78.8z"/>
	<path class="st2" d="M71.5,212.7c-3.1,0-5.6-2.5-5.6-5.6v-7.4v-7.4V88.3l5.6-11.2l5.6,11.2v103.9v7.4v7.4
		C77.1,210.2,74.6,212.7,71.5,212.7z"/>
	
		<rect x="19.6" y="135.3" transform="matrix(4.488594e-11 -1 1 4.488594e-11 -69.3591 212.412)" class="st0" width="103.8" height="11.2"/>
	
		<rect x="68.2" y="191.9" transform="matrix(4.494367e-11 -1 1 4.494367e-11 -124.572 267.6007)" class="st3" width="6.6" height="8.4"/>
	
		<rect x="70.3" y="83.4" transform="matrix(4.506624e-11 -1 1 4.506624e-11 -17.4568 160.5097)" class="st4" width="2.5" height="11.2"/>
	
		<rect x="70.3" y="194.5" transform="matrix(4.506624e-11 -1 1 4.506624e-11 -128.5152 271.5681)" class="st4" width="2.5" height="11.2"/>
	
		<rect x="70.3" y="187.2" transform="matrix(4.506624e-11 -1 1 4.506624e-11 -121.2614 264.3142)" class="st4" width="2.5" height="11.2"/>
	<path class="st4" d="M130.8,111.8h1c0.5,0,0.9,0.4,0.9,0.9v17.8c0,0.5-0.4,0.9-0.9,0.9h-1c-0.5,0-0.9-0.4-0.9-0.9v-17.8
		C129.9,112.2,130.3,111.8,130.8,111.8z"/>
	<path class="st4" d="M95.4,111.8h1c0.5,0,0.9,0.4,0.9,0.9v17.8c0,0.5-0.4,0.9-0.9,0.9h-1c-0.5,0-0.9-0.4-0.9-0.9v-17.8
		C94.5,112.2,94.9,111.8,95.4,111.8z"/>
</g>
<g id="Слой_4">
	<path class="st2" d="M294.1,212.7c3.1,0,5.6-2.5,5.6-5.6v-7.4v-7.4V88.3l-5.6-11.2l-5.6,11.2v103.9v7.4v7.4
		C288.5,210.2,291,212.7,294.1,212.7z"/>
	
		<rect x="242.2" y="135.3" transform="matrix(6.123234e-17 -1 1 6.123234e-17 153.1866 434.9577)" class="st0" width="103.8" height="11.2"/>
	
		<rect x="290.8" y="191.9" transform="matrix(6.123234e-17 -1 1 6.123234e-17 97.9979 490.1706)" class="st3" width="6.6" height="8.4"/>
	
		<rect x="292.8" y="83.4" transform="matrix(6.123234e-17 -1 1 6.123234e-17 205.0888 383.0554)" class="st4" width="2.5" height="11.2"/>
	
		<rect x="292.8" y="194.5" transform="matrix(6.123234e-17 -1 1 6.123234e-17 94.0305 494.1138)" class="st4" width="2.5" height="11.2"/>
	
		<rect x="292.8" y="187.2" transform="matrix(6.123234e-17 -1 1 6.123234e-17 101.2843 486.8599)" class="st4" width="2.5" height="11.2"/>
</g>
<g id="Слой_2">
	<path class="st4" d="M165.7,137h-1c-0.5,0-0.9,0.4-0.9,0.9v17.8c0,0.5,0.4,0.9,0.9,0.9h1c0.5,0,0.9-0.4,0.9-0.9v-17.8
		C166.6,137.4,166.2,137,165.7,137z"/>
	<path class="st4" d="M201.2,137h-1c-0.5,0-0.9,0.4-0.9,0.9v17.8c0,0.5,0.4,0.9,0.9,0.9h1c0.5,0,0.9-0.4,0.9-0.9v-17.8
		C202.1,137.4,201.6,137,201.2,137z"/>
	<path class="st4" d="M234.8,111.8h-1c-0.5,0-0.9,0.4-0.9,0.9v17.8c0,0.5,0.4,0.9,0.9,0.9h1c0.5,0,0.9-0.4,0.9-0.9v-17.8
		C235.7,112.2,235.3,111.8,234.8,111.8z"/>
	<path class="st4" d="M270.2,111.8h-1c-0.5,0-0.9,0.4-0.9,0.9v17.8c0,0.5,0.4,0.9,0.9,0.9h1c0.5,0,0.9-0.4,0.9-0.9v-17.8
		C271.1,112.2,270.7,111.8,270.2,111.8z"/>
</g>
<g id="Слой_3">
	<g id="Слой_18">
	</g>
	<g id="Слой_17">
	</g>
	<g id="Слой_16">
	</g>
	<g id="Слой_15">
	</g>
	<g id="Слой_14">
	</g>
	<g id="Слой_13">
	</g>
	<g id="Слой_12">
	</g>
	<g id="Слой_11">
	</g>
	<g id="Слой_10">
	</g>
	<g id="Слой_9">
	</g>
	<g id="Слой_8">
	</g>
	<g id="Слой_6">
	</g>
</g>
</svg>
