<svg xmlns="http://www.w3.org/2000/svg" width="38.38" height="41.187" viewBox="0 0 38.38 41.187">
  <metadata><?xpacket begin="﻿" id="W5M0MpCehiHzreSzNTczkc9d"?>
<x:xmpmeta xmlns:x="adobe:ns:meta/" x:xmptk="Adobe XMP Core 5.6-c142 79.160924, 2017/07/13-01:06:39        ">
   <rdf:RDF xmlns:rdf="http://www.w3.org/1999/02/22-rdf-syntax-ns#">
      <rdf:Description rdf:about=""/>
   </rdf:RDF>
</x:xmpmeta>
                                                                                                    
                                                                                                    
                                                                                                    
                                                                                                    
                                                                                                    
                                                                                                    
                                                                                                    
                                                                                                    
                                                                                                    
                                                                                                    
                                                                                                    
                                                                                                    
                                                                                                    
                                                                                                    
                                                                                                    
                                                                                                    
                                                                                                    
                                                                                                    
                                                                                                    
                                                                                                    
                           
<?xpacket end="w"?></metadata>
<defs>
    <style>
      .cls-1 {
        fill: #8063c6;
        fill-rule: evenodd;
      }
    </style>
  </defs>
  <path id="Фигура_1022" data-name="Фигура 1022" class="cls-1" d="M1301.92,476.831a3.086,3.086,0,0,0-1.61.424V453.644a1.584,1.584,0,0,0-1.58-1.582h-18.89a0.454,0.454,0,0,0-.05.012,0.786,0.786,0,0,0-.24.048,0.427,0.427,0,0,0-.09.032,0.919,0.919,0,0,0-.28.184L1267.3,464.3a1.061,1.061,0,0,0-.19.276l-0.03.088a1.953,1.953,0,0,0-.05.244c0,0.02-.01.038-0.01,0.058v26.691a1.584,1.584,0,0,0,1.58,1.582h35.86a0.94,0.94,0,0,0,.94-0.941v-11.1C1305.4,478.3,1304.23,476.831,1301.92,476.831Zm-27.36-17.183,4.35-4.371v8.743h-8.69Zm-5.66,6.255h10.94a0.941,0.941,0,0,0,.94-0.942V453.945h17.65v23.31a3.086,3.086,0,0,0-1.61-.424,3,3,0,0,0-2.54,1.267,3.029,3.029,0,0,0-2.55-1.267,3.139,3.139,0,0,0-1.61.411v-5.448a4.33,4.33,0,1,0-8.66,0v19.557H1268.9V465.9Zm34.63,25.448h-20.2V471.8a2.46,2.46,0,1,1,4.92-.006v9.4a0.935,0.935,0,1,0,1.87,0c0-.025.02-2.474,1.61-2.474,1.57,0,1.61,2.376,1.61,2.474a0.935,0.935,0,1,0,1.87,0c0-.025.02-2.474,1.61-2.474s1.61,2.376,1.61,2.474a0.94,0.94,0,1,0,1.88,0c0-.025.01-2.474,1.61-2.474,1.22,0,1.61.6,1.61,2.474v10.162Z" transform="translate(-1267.03 -452.063)"/>
</svg>
