<svg xmlns="http://www.w3.org/2000/svg" width="41.16" height="41.156" viewBox="0 0 41.16 41.156">
  <metadata><?xpacket begin="﻿" id="W5M0MpCehiHzreSzNTczkc9d"?>
<x:xmpmeta xmlns:x="adobe:ns:meta/" x:xmptk="Adobe XMP Core 5.6-c142 79.160924, 2017/07/13-01:06:39        ">
   <rdf:RDF xmlns:rdf="http://www.w3.org/1999/02/22-rdf-syntax-ns#">
      <rdf:Description rdf:about=""/>
   </rdf:RDF>
</x:xmpmeta>
                                                                                                    
                                                                                                    
                                                                                                    
                                                                                                    
                                                                                                    
                                                                                                    
                                                                                                    
                                                                                                    
                                                                                                    
                                                                                                    
                                                                                                    
                                                                                                    
                                                                                                    
                                                                                                    
                                                                                                    
                                                                                                    
                                                                                                    
                                                                                                    
                                                                                                    
                                                                                                    
                           
<?xpacket end="w"?></metadata>
<defs>
    <style>
      .cls-1 {
        fill: #8063c6;
        fill-rule: evenodd;
      }
    </style>
  </defs>
  <path id="_" data-name="$" class="cls-1" d="M1296.53,629.391l8.66,2.276,2.18-8.661-1.66-.438-1.42,5.4a20.578,20.578,0,1,0,.28,21.205l-1.49-.807a18.889,18.889,0,1,1,.09-19l-6.2-1.647Zm-3.46,11.568a4.71,4.71,0,0,0-1.64-1.552,16.112,16.112,0,0,0-3.34-1.389v-6.183a14.4,14.4,0,0,1,4.31,1l0.74-1.866a14.432,14.432,0,0,0-5.05-1.054v-2.565h-1.84v2.593a7.069,7.069,0,0,0-3.83,1.453,3.806,3.806,0,0,0-1.44,3.063,4.392,4.392,0,0,0,1.17,3.163,9.891,9.891,0,0,0,4.1,2.151v6.268a13.434,13.434,0,0,1-2.82-.335,13.672,13.672,0,0,1-2.72-.862v2.223a9.615,9.615,0,0,0,2.45.691,18.664,18.664,0,0,0,3.09.249v3.177h1.84v-3.305a7.5,7.5,0,0,0,4.06-1.589A4.356,4.356,0,0,0,1293.07,640.959Zm-4.98,4.937v-5.542a6.738,6.738,0,0,1,2.45,1.261,2.219,2.219,0,0,1,.64,1.659q0,2.194-3.09,2.622h0Zm-3.98-13.114a4.117,4.117,0,0,1,2.14-.89v5.513a6.007,6.007,0,0,1-2.22-1.239,2.373,2.373,0,0,1-.65-1.738A2.155,2.155,0,0,1,1284.11,632.782Z" transform="translate(-1266.22 -618.219)"/>
</svg>
