<svg xmlns="http://www.w3.org/2000/svg" width="35.53" height="43.969" viewBox="0 0 35.53 43.969">
  <metadata><?xpacket begin="﻿" id="W5M0MpCehiHzreSzNTczkc9d"?>
<x:xmpmeta xmlns:x="adobe:ns:meta/" x:xmptk="Adobe XMP Core 5.6-c142 79.160924, 2017/07/13-01:06:39        ">
   <rdf:RDF xmlns:rdf="http://www.w3.org/1999/02/22-rdf-syntax-ns#">
      <rdf:Description rdf:about=""/>
   </rdf:RDF>
</x:xmpmeta>
                                                                                                    
                                                                                                    
                                                                                                    
                                                                                                    
                                                                                                    
                                                                                                    
                                                                                                    
                                                                                                    
                                                                                                    
                                                                                                    
                                                                                                    
                                                                                                    
                                                                                                    
                                                                                                    
                                                                                                    
                                                                                                    
                                                                                                    
                                                                                                    
                                                                                                    
                                                                                                    
                           
<?xpacket end="w"?></metadata>
<defs>
    <style>
      .cls-1 {
        fill: #8063c6;
        fill-rule: evenodd;
      }
    </style>
  </defs>
  <path id="Фигура_1021" data-name="Фигура 1021" class="cls-1" d="M1284.45,828.7l-0.8-.179c-17.37-6.307-17.1-21.155-16.9-32,0.05-1.162.05-2.2,0.05-3.244a2.426,2.426,0,0,1,2.39-2.489h0c5.69,0,10-1.712,13.57-5.386a2.4,2.4,0,0,1,3.37-.011c3.59,3.685,7.9,5.4,13.58,5.4l0.12,0a2.35,2.35,0,0,1,1.64.773,2.432,2.432,0,0,1,.63,1.748c0,1,0,2.047.05,3.136v0.026c0.2,10.854.47,25.718-16.9,32.042l-0.12.037Zm-0.21-2.051,0.21,0.045,0.22-.045c15.98-5.859,15.74-19.877,15.55-30.121-0.05-1.115-.05-2.181-0.05-3.247a0.491,0.491,0,0,0-.12-0.374,0.448,0.448,0,0,0-.32-0.151c-6.25,0-11-1.9-14.96-5.968a0.464,0.464,0,0,0-.65.011c-3.95,4.06-8.7,5.956-14.93,5.956h0a0.47,0.47,0,0,0-.46.473c0,1.123,0,2.192-.05,3.313C1268.49,806.789,1268.24,820.8,1284.24,826.645Zm8.55-24.292a4.025,4.025,0,0,0-2.71-1.3,4.122,4.122,0,0,0-1.05-2.859,4.02,4.02,0,0,0-3.02-1.316h-6.86a0.916,0.916,0,0,0-.92.852l-1.27,14.561a0.968,0.968,0,0,0,.24.711,0.94,0.94,0,0,0,.68.3H1281l-0.28,3.146a0.976,0.976,0,0,0,.24.713,0.943,0.943,0,0,0,.68.3h4.12a0.915,0.915,0,0,0,.92-0.851l0.47-5.39h1.9a4.8,4.8,0,0,0,4.66-4.318l0.12-1.387A4.148,4.148,0,0,0,1292.79,802.353Zm-7.5,2.844h-1.74l0.2-2.294h4.31A2.9,2.9,0,0,1,1285.29,805.2Zm-1.9,1.866h1.9a4.794,4.794,0,0,0,4.64-4.156,2.18,2.18,0,0,1,1.49.706,2.254,2.254,0,0,1,.56,1.742l-0.12,1.387a2.887,2.887,0,0,1-2.81,2.616h-2.75a0.929,0.929,0,0,0-.92.851l-0.46,5.389h-2.27Zm-0.48-6.026a0.915,0.915,0,0,0-.92.851l-0.83,9.55h-2.27l1.1-12.7h6.02a2.187,2.187,0,0,1,2.22,2.3h-5.32Z" transform="translate(-1266.69 -784.719)"/>
</svg>
