<svg xmlns="http://www.w3.org/2000/svg" width="17.375" height="17.375" viewBox="0 0 17.375 17.375">
  <metadata><?xpacket begin="﻿" id="W5M0MpCehiHzreSzNTczkc9d"?>
<x:xmpmeta xmlns:x="adobe:ns:meta/" x:xmptk="Adobe XMP Core 5.6-c138 79.159824, 2016/09/14-01:09:01        ">
   <rdf:RDF xmlns:rdf="http://www.w3.org/1999/02/22-rdf-syntax-ns#">
      <rdf:Description rdf:about=""/>
   </rdf:RDF>
</x:xmpmeta>
                                                                                                    
                                                                                                    
                                                                                                    
                                                                                                    
                                                                                                    
                                                                                                    
                                                                                                    
                                                                                                    
                                                                                                    
                                                                                                    
                                                                                                    
                                                                                                    
                                                                                                    
                                                                                                    
                                                                                                    
                                                                                                    
                                                                                                    
                                                                                                    
                                                                                                    
                                                                                                    
                           
<?xpacket end="w"?></metadata>
<defs>
    <style>
      .cls-1 {
        fill: #8063c6;
        fill-rule: evenodd;
      }
    </style>
  </defs>
  <path id="Фигура_2" data-name="Фигура 2" class="cls-1" d="M352.3,604.128a8.514,8.514,0,0,0-5.965-2.192,8.945,8.945,0,0,0-6.383,2.494,8.2,8.2,0,0,0-2.637,6.207,8.451,8.451,0,0,0,2.508,6.121,9.05,9.05,0,0,0,6.77,2.565,12.783,12.783,0,0,0,5.034-1.047,1.061,1.061,0,0,0,.58-1.373h0a1.073,1.073,0,0,0-1.417-.574,10.679,10.679,0,0,1-4.2.916,6.486,6.486,0,0,1-5.056-1.972,6.667,6.667,0,0,1-1.789-4.626,6.56,6.56,0,0,1,1.918-4.813,6.38,6.38,0,0,1,4.706-1.929,6.276,6.276,0,0,1,4.343,1.586,5.125,5.125,0,0,1,1.772,3.99,4.466,4.466,0,0,1-.813,2.738,2.2,2.2,0,0,1-1.685,1.092,0.431,0.431,0,0,1-.472-0.5,9.333,9.333,0,0,1,.06-0.961l0.666-5.395h-2.29l-0.147.528a2.988,2.988,0,0,0-1.918-.708,3.682,3.682,0,0,0-2.83,1.305,5.457,5.457,0,0,0-.132,6.6,3.186,3.186,0,0,0,2.515,1.231,2.861,2.861,0,0,0,2.247-1.093,2.333,2.333,0,0,0,2.072,1.046,4.416,4.416,0,0,0,3.478-1.738,6.278,6.278,0,0,0,1.467-4.189A6.916,6.916,0,0,0,352.3,604.128Zm-5.274,8.161a1.778,1.778,0,0,1-1.449.812,1.042,1.042,0,0,1-.923-0.6,2.846,2.846,0,0,1-.355-1.482,2.91,2.91,0,0,1,.494-1.766,1.477,1.477,0,0,1,1.224-.674,1.533,1.533,0,0,1,1.127.5,1.838,1.838,0,0,1,.494,1.344A3.053,3.053,0,0,1,347.025,612.289Z" transform="translate(-337.313 -601.938)"/>
</svg>
