<svg id="figures" xmlns="http://www.w3.org/2000/svg" width="928.25" height="687.719" viewBox="0 0 928.25 687.719">
  <metadata><?xpacket begin="﻿" id="W5M0MpCehiHzreSzNTczkc9d"?>
<x:xmpmeta xmlns:x="adobe:ns:meta/" x:xmptk="Adobe XMP Core 5.6-c138 79.159824, 2016/09/14-01:09:01        ">
   <rdf:RDF xmlns:rdf="http://www.w3.org/1999/02/22-rdf-syntax-ns#">
      <rdf:Description rdf:about=""/>
   </rdf:RDF>
</x:xmpmeta>
                                                                                                    
                                                                                                    
                                                                                                    
                                                                                                    
                                                                                                    
                                                                                                    
                                                                                                    
                                                                                                    
                                                                                                    
                                                                                                    
                                                                                                    
                                                                                                    
                                                                                                    
                                                                                                    
                                                                                                    
                                                                                                    
                                                                                                    
                                                                                                    
                                                                                                    
                                                                                                    
                           
<?xpacket end="w"?></metadata>
<defs>
    <style>
      .cls-1, .cls-2 {
        fill: #8063c6;
      }

      .cls-1 {
        fill-rule: evenodd;
      }
    </style>
  </defs>
  <g id="triangles">
    <path id="triangle_1" data-name="triangle 1" class="cls-1" d="M54.773,370.429l0.22-38.331a1.624,1.624,0,0,1,.822-1.4,1.658,1.658,0,0,1,1.63-.009l33.586,18.97a1.655,1.655,0,0,1-.017,2.78L57.208,371.8a1.652,1.652,0,0,1-1.628.01A1.58,1.58,0,0,1,54.773,370.429Zm3.462-35.57L58.047,367.63l28.9-16.553Z" transform="translate(-0.75 -0.531)"/>
    <path id="triangle_2" data-name="triangle 2" class="cls-1" d="M40.619,370.447l0.22-38.331a1.625,1.625,0,0,1,.823-1.395,1.658,1.658,0,0,1,1.629-.009l33.586,18.97a1.656,1.656,0,0,1-.016,2.781l-33.806,19.36a1.655,1.655,0,0,1-1.63.009A1.58,1.58,0,0,1,40.619,370.447Zm3.462-35.57-0.188,32.772L72.8,351.1Z" transform="translate(-0.75 -0.531)"/>
  </g>
  <g id="triangles-2" data-name="triangles">
    <path id="triangle_1-2" data-name="triangle 1" class="cls-1" d="M536.651,14.265L573.618,24.4a1.623,1.623,0,0,1,1.135,1.155,1.657,1.657,0,0,1-.413,1.577L547.324,54.662a1.655,1.655,0,0,1-2.681-.736l-9.951-37.665a1.652,1.652,0,0,1,.412-1.575A1.58,1.58,0,0,1,536.651,14.265Zm33.462,12.55-31.607-8.663,8.509,32.2Z" transform="translate(-0.75 -0.531)"/>
    <path id="triangle_2-2" data-name="triangle 2" class="cls-1" d="M540.3,0.588l36.967,10.133a1.625,1.625,0,0,1,1.135,1.156,1.655,1.655,0,0,1-.413,1.576L550.97,40.984a1.656,1.656,0,0,1-2.682-.734L538.337,2.585a1.654,1.654,0,0,1,.413-1.576A1.58,1.58,0,0,1,540.3.588Zm33.461,12.55L542.152,4.475l8.508,32.2Z" transform="translate(-0.75 -0.531)"/>
  </g>
  <g id="triangles-3" data-name="triangles">
    <path id="triangle_1-3" data-name="triangle 1" class="cls-1" d="M527.557,615.414l-19.571,33.46a1.64,1.64,0,0,1-2.827.007l-19.406-33.355a1.688,1.688,0,0,1,1.421-2.427l38.977-.1a1.626,1.626,0,0,1,1.41.8A1.6,1.6,0,0,1,527.557,615.414ZM506.583,644.84l16.733-28.608-33.324.09Z" transform="translate(-0.75 -0.531)"/>
    <path id="triangle_2-3" data-name="triangle 2" class="cls-1" d="M539.788,622.453l-19.572,33.461a1.647,1.647,0,0,1-1.415.811,1.629,1.629,0,0,1-1.411-.8l-19.406-33.355a1.688,1.688,0,0,1,1.419-2.428l38.977-.1a1.629,1.629,0,0,1,1.412.8A1.6,1.6,0,0,1,539.788,622.453ZM518.813,651.88l16.734-28.608-33.325.09Z" transform="translate(-0.75 -0.531)"/>
  </g>
  <path id="circle_1" data-name="circle 1" class="cls-1" d="M863.908,267.205a12.827,12.827,0,1,1-12.728,12.827,12.793,12.793,0,0,1,12.728-12.827m0-3.206a16.034,16.034,0,1,0,15.91,16.033A15.971,15.971,0,0,0,863.908,264h0Z" transform="translate(-0.75 -0.531)"/>
  <path id="circle_2" data-name="circle 2" class="cls-1" d="M872.089,273.139a12.827,12.827,0,1,1-12.728,12.827,12.792,12.792,0,0,1,12.728-12.827m0-3.207A16.034,16.034,0,1,0,888,285.966a15.973,15.973,0,0,0-15.91-16.034h0Z" transform="translate(-0.75 -0.531)"/>
  <path id="wavy_line" data-name="wavy line" class="cls-1" d="M927.382,156.918c-4.67,1.231-7.813-.824-10.339-2.476-2.252-1.472-4.029-2.635-6.8-1.9s-3.718,2.612-4.92,4.994c-1.349,2.674-3.026,6-7.7,7.234s-7.813-.824-10.339-2.477c-2.25-1.472-4.029-2.635-6.8-1.9s-3.716,2.612-4.918,5c-1.348,2.673-3.026,6-7.695,7.232s-7.813-.824-10.338-2.477c-2.252-1.471-4.03-2.634-6.8-1.9a2.186,2.186,0,0,1-2.671-1.521,2.144,2.144,0,0,1,1.541-2.632c4.67-1.231,7.813.825,10.338,2.477,2.252,1.473,4.029,2.635,6.8,1.905s3.717-2.612,4.919-5c1.348-2.675,3.026-6,7.695-7.233s7.812,0.824,10.338,2.477c2.251,1.472,4.029,2.634,6.8,1.9s3.719-2.612,4.92-5c1.349-2.673,3.027-6,7.7-7.232s7.813,0.824,10.34,2.476c2.25,1.472,4.028,2.635,6.8,1.905a2.186,2.186,0,0,1,2.672,1.52A2.146,2.146,0,0,1,927.382,156.918Z" transform="translate(-0.75 -0.531)"/>
  <path id="wavy_line-2" data-name="wavy line" class="cls-1" d="M382.29,613.362c-1.066,4.71-4.342,6.548-6.973,8.025-2.347,1.317-4.2,2.356-4.831,5.149s0.6,4.505,2.156,6.672c1.749,2.432,3.924,5.457,2.859,10.167s-4.341,6.548-6.973,8.025c-2.346,1.316-4.2,2.356-4.83,5.148s0.6,4.5,2.157,6.669c1.748,2.431,3.923,5.457,2.858,10.167s-4.341,6.548-6.973,8.024c-2.346,1.316-4.2,2.356-4.83,5.148a2.186,2.186,0,0,1-2.583,1.666,2.144,2.144,0,0,1-1.622-2.582c1.066-4.711,4.341-6.549,6.974-8.024,2.346-1.317,4.2-2.356,4.829-5.148s-0.6-4.5-2.156-6.67c-1.75-2.431-3.925-5.457-2.859-10.166s4.341-6.548,6.973-8.025c2.346-1.316,4.2-2.356,4.83-5.147s-0.6-4.5-2.157-6.672c-1.747-2.431-3.923-5.457-2.858-10.168s4.341-6.548,6.974-8.026c2.345-1.315,4.2-2.354,4.83-5.148a2.186,2.186,0,0,1,2.583-1.667A2.144,2.144,0,0,1,382.29,613.362Z" transform="translate(-0.75 -0.531)"/>
  <path id="line" class="cls-1" d="M787.453,101.417a1.5,1.5,0,0,1-1.295-2.453l49.353-59.718a1.5,1.5,0,1,1,2.307,1.916L788.466,100.88A1.492,1.492,0,0,1,787.453,101.417Z" transform="translate(-0.75 -0.531)"/>
  <path id="line-2" data-name="line" class="cls-1" d="M836.868,480.933a1.5,1.5,0,0,1,2.206-1.693l67.353,38.873a1.505,1.505,0,1,1-1.506,2.607l-67.352-38.873A1.5,1.5,0,0,1,836.868,480.933Z" transform="translate(-0.75 -0.531)"/>
  <path id="line-3" data-name="line" class="cls-1" d="M644.088,591.416a1.5,1.5,0,0,1,2.757.363l20.138,75.113a1.505,1.505,0,0,1-2.908.779l-20.138-75.113A1.5,1.5,0,0,1,644.088,591.416Z" transform="translate(-0.75 -0.531)"/>
  <path id="line-4" data-name="line" class="cls-1" d="M160.183,613.761a1.505,1.505,0,0,1,.812,2.66l-60.02,49.448a1.505,1.505,0,0,1-1.914-2.324l60.02-49.447A1.5,1.5,0,0,1,160.183,613.761Z" transform="translate(-0.75 -0.531)"/>
  <path id="line-5" data-name="line" class="cls-1" d="M37.209,234.89a1.435,1.435,0,0,1-.283-0.933,0.974,0.974,0,0,1,1.249-.909l60.247,14.934a1.481,1.481,0,0,1,1.082,1.487,0.973,0.973,0,0,1-1.249.91L38.009,235.445A1.432,1.432,0,0,1,37.209,234.89Z" transform="translate(-0.75 -0.531)"/>
  <path id="line-6" data-name="line" class="cls-1" d="M126.056,29.045a1.424,1.424,0,0,1,.314-0.922,0.974,0.974,0,0,1,1.546-.007l40.157,47.329a1.483,1.483,0,0,1,.008,1.84,0.974,0.974,0,0,1-1.546.007L126.379,29.963A1.426,1.426,0,0,1,126.056,29.045Z" transform="translate(-0.75 -0.531)"/>
  <path id="wavy_line-3" data-name="wavy line" class="cls-1" d="M118.9,551.7h-5.6v-5.6h-5.6v5.6h-5.6v5.6h5.6v5.6h5.6v-5.6h5.6v-5.6Z" transform="translate(-0.75 -0.531)"/>
  <path id="wavy_line-4" data-name="wavy line" class="cls-1" d="M885.9,382.7h-5.6v-5.6h-5.6v5.6h-5.6v5.6h5.6v5.6h5.6v-5.6h5.6v-5.6Z" transform="translate(-0.75 -0.531)"/>
  <path id="wavy_line-5" data-name="wavy line" class="cls-1" d="M675.9,58.7h-5.6V53.1h-5.6v5.6h-5.6v5.6h5.6v5.6h5.6V64.3h5.6V58.7Z" transform="translate(-0.75 -0.531)"/>
  <path id="wavy_line-6" data-name="wavy line" class="cls-1" d="M77.266,154.531c-4.85-1.274-6.576-4.781-7.964-7.6-1.237-2.511-2.212-4.5-5.088-5.251s-4.732.483-7.082,2.052c-2.637,1.76-5.918,3.95-10.769,2.675s-6.575-4.781-7.961-7.6c-1.237-2.511-2.212-4.494-5.087-5.25s-4.731.483-7.081,2.052c-2.637,1.761-5.918,3.951-10.767,2.677s-6.575-4.782-7.962-7.6c-1.236-2.511-2.212-4.494-5.086-5.25a2.244,2.244,0,0,1-1.587-2.772,2.294,2.294,0,0,1,2.787-1.622c4.849,1.274,6.575,4.781,7.963,7.6,1.236,2.511,2.211,4.5,5.085,5.25s4.732-.483,7.081-2.052c2.636-1.76,5.918-3.951,10.766-2.676s6.575,4.781,7.963,7.6c1.235,2.511,2.212,4.495,5.086,5.25s4.733-.483,7.082-2.052c2.637-1.76,5.919-3.95,10.768-2.676s6.576,4.782,7.964,7.6c1.235,2.511,2.212,4.5,5.088,5.251a2.243,2.243,0,0,1,1.587,2.772A2.3,2.3,0,0,1,77.266,154.531Z" transform="translate(-0.75 -0.531)"/>
  <path id="wavy_line-7" data-name="wavy line" class="cls-1" d="M289.615,69.829c-2.374-3.5-1.524-6.691-.841-9.253,0.608-2.283,1.09-4.087-.319-6.164s-3.276-2.321-5.641-2.629c-2.654-.345-5.956-0.775-8.332-4.28s-1.523-6.691-.84-9.253c0.609-2.283,1.089-4.086-.319-6.162s-3.275-2.321-5.64-2.629c-2.654-.345-5.956-0.775-8.331-4.278s-1.524-6.692-.84-9.253c0.609-2.283,1.089-4.086-.318-6.162a1.9,1.9,0,0,1,.53-2.645,1.936,1.936,0,0,1,2.672.518c2.376,3.5,1.526,6.691.841,9.252-0.607,2.283-1.089,4.086.318,6.162s3.277,2.32,5.641,2.628c2.653,0.345,5.957.775,8.331,4.278s1.524,6.692.841,9.253c-0.609,2.283-1.09,4.086.317,6.163s3.277,2.321,5.642,2.628c2.654,0.346,5.956.776,8.332,4.28s1.524,6.692.84,9.253c-0.608,2.283-1.089,4.086.32,6.164a1.9,1.9,0,0,1-.531,2.644A1.939,1.939,0,0,1,289.615,69.829Z" transform="translate(-0.75 -0.531)"/>
  <path id="wavy_line-8" data-name="wavy line" class="cls-1" d="M113.759,460.583c-3.8,2.21-7.056,1.1-9.668.217-2.33-.792-4.17-1.418-6.424-0.107s-2.637,3.227-3.119,5.653c-0.544,2.723-1.217,6.111-5.021,8.322s-7.055,1.105-9.668.216c-2.328-.792-4.168-1.417-6.422-0.107S70.8,478,70.317,480.43c-0.542,2.723-1.216,6.111-5.02,8.321s-7.054,1.1-9.667.215c-2.329-.791-4.169-1.417-6.423-0.107a1.976,1.976,0,0,1-2.709-.735,2.005,2.005,0,0,1,.722-2.731c3.8-2.21,7.055-1.1,9.668-.216,2.329,0.793,4.169,1.418,6.423.108s2.636-3.227,3.119-5.653c0.542-2.723,1.215-6.111,5.019-8.322s7.055-1.1,9.668-.215c2.329,0.791,4.168,1.417,6.423.107s2.636-3.228,3.12-5.654c0.542-2.723,1.216-6.111,5.019-8.322s7.056-1.1,9.67-.216c2.328,0.792,4.168,1.417,6.423.107a1.977,1.977,0,0,1,2.71.736A2.006,2.006,0,0,1,113.759,460.583Z" transform="translate(-0.75 -0.531)"/>
  <path id="wavy_line-9" data-name="wavy line" class="cls-1" d="M850.017,659.91c-3.563-3.528-3.305-7.428-3.1-10.562,0.186-2.793.332-5-1.782-7.092s-4.338-1.947-7.158-1.764c-3.164.206-7.1,0.463-10.663-3.067s-3.3-7.428-3.1-10.562c0.186-2.793.332-5-1.78-7.09s-4.339-1.947-7.159-1.763c-3.162.206-7.1,0.463-10.661-3.066s-3.3-7.428-3.1-10.561c0.186-2.793.332-5-1.78-7.091a2.242,2.242,0,0,1,.012-3.194,2.3,2.3,0,0,1,3.225-.012c3.561,3.529,3.3,7.429,3.1,10.563-0.186,2.792-.333,5,1.779,7.09s4.338,1.946,7.157,1.763c3.164-.207,7.1-0.463,10.663,3.065s3.3,7.428,3.1,10.563c-0.186,2.792-.332,5,1.78,7.089s4.339,1.949,7.159,1.765c3.164-.206,7.1-0.462,10.663,3.066s3.3,7.429,3.1,10.563c-0.186,2.793-.332,5,1.781,7.092a2.243,2.243,0,0,1-.01,3.194A2.3,2.3,0,0,1,850.017,659.91Z" transform="translate(-0.75 -0.531)"/>
  <circle id="filled_circle" data-name="filled circle" class="cls-2" cx="250.75" cy="614.969" r="6.5"/>
  <circle id="filled_circle-2" data-name="filled circle" class="cls-2" cx="416.75" cy="33.969" r="6.5"/>
</svg>
